<?xml version="1.0" encoding="UTF-8"?>
<svg id="Layer_1" xmlns="http://www.w3.org/2000/svg" version="1.1" viewBox="0 0 32 32">
  <!-- Generator: Adobe Illustrator 29.5.1, SVG Export Plug-In . SVG Version: 2.1.0 Build 141)  -->
  <defs>
    <style>
      .st0 {
        fill: #f37e7f;
      }

      .st1 {
        fill: #ec008c;
      }
    </style>
  </defs>
  <path class="st1" d="M7.59,8s-1.6,4.1,2.82,1.85c0,.02,1.22,4.82,4.28.87-.03.05,2.18,3.97,3.59-.15-.03,0,2.47,2.68,3.22-.34.05,0,3.59,2.12,2.23-2.55.03-.02,2.66-3.27-1.97-3.25,0,.05-.61-4.1-4.02-1.45-.11.02-2.34-4.05-4.66-.02,0,.02-4.26-2.07-4.02,2,0,.02-3.83-.7-1.49,3.05Z"/>
  <path class="st0" d="M11.36,17.02c-1.04,0-1.88.89-1.88,2s.84,2,1.88,2,1.88-.89,1.88-2-.84-2-1.88-2ZM11.98,19.09c-.34,0-.62-.29-.62-.66s.28-.66.62-.66.62.29.62.66-.28.66-.62.66Z"/>
  <path class="st0" d="M21.06,17.03c-1.04,0-1.88.89-1.88,2s.84,2,1.88,2,1.88-.89,1.88-2-.84-2-1.88-2ZM21.67,19.09c-.34,0-.62-.29-.62-.66s.28-.66.62-.66.62.29.62.66-.28.66-.62.66Z"/>
  <path class="st0" d="M24.2,6.9c-.27-.14-.56-.17-.83-.1-.7.06-4,.02-6.95-.04h-.04c-3.14.06-6.64.1-7.35.04-.27-.08-.56-.04-.8.08C.18,11.04-.17,13.93.04,14.8c0,.19.06.39.19.54.54.72,1.28,1.16,2.17,1.28,1.13.15,2.48-.21,3.94-1.07.25,15.63,9.6,16.41,10.15,16.44.39-.04,9.26-.81,9.53-16.41,1.36.83,2.6,1.18,3.67,1.05.87-.12,1.61-.58,2.13-1.32.1-.15.14-.17.14-.37.21-1.03-.12-3.89-7.76-8.06ZM29.4,14.72c-.31.04-1.47.02-3.67-1.72-.04-.06-.21-.17-.29-.21-.31-.15-.7-.14-1.01.04-.31.17-.5.5-.5.85.35,12.3-4.44,15.38-6.5,16.15v-2.77c.47-.19.97-.54,1.49-1.2.33-.43.23-1.03-.23-1.36-.45-.31-1.09-.21-1.44.21-.29.39-.6.62-.83.62h-.02c-.33-.02-.7-.41-.83-.58-.31-.45-.95-.56-1.42-.27-.47.29-.62.89-.29,1.34.06.12.62.87,1.51,1.24v2.75c-2.29-.77-7.33-3.87-6.95-16.13,0-.35-.19-.66-.5-.85-.17-.1-.35-.14-.54-.14-.16,0-.33.02-.47.1-.06.02-.23.15-.29.19-2.29,1.72-3.51,1.78-3.94,1.72-.23-.02-.41-.12-.58-.27.08-.54.87-2.58,6.83-5.69.95.08,2.93.06,7.47-.04,4.25.1,6.13.12,7.06.04,5.7,3.16,6.4,5.17,6.48,5.71-.21.19-.39.25-.54.27Z"/>
  <path class="st0" d="M23.03,3.93c0,.06-.74-4.95-4.85-1.75-.13.03-2.83-4.89-5.62-.03,0,.03-5.14-2.51-4.85,2.41,0,.03-4.63-.85-1.8,3.68,0,0-1.93,4.95,3.4,2.23,0,.03,1.48,5.82,5.17,1.06-.03.06,2.63,4.8,4.34-.18-.03,0,2.99,3.24,3.89-.42.06,0,4.34,2.56,2.7-3.08.03-.03,3.21-3.95-2.38-3.92Z"/>
</svg>