<?xml version="1.0" encoding="UTF-8"?>
<svg xmlns="http://www.w3.org/2000/svg" xmlns:xlink="http://www.w3.org/1999/xlink" version="1.1" viewBox="0 0 32 32">
  <!-- Generator: Adobe Illustrator 29.5.1, SVG Export Plug-In . SVG Version: 2.1.0 Build 141)  -->
  <defs>
    <style>
      .st0 {
        fill: none;
      }

      .st1 {
        fill: #e0e0e0;
      }

      .st2 {
        fill: url(#linear-gradient1);
      }

      .st3 {
        fill: url(#linear-gradient);
      }
    </style>
    <linearGradient id="linear-gradient" x1="14.48" y1="22.64" x2="24.86" y2="22.64" gradientUnits="userSpaceOnUse">
      <stop offset="0" stop-color="#fc7f7f"/>
      <stop offset=".5" stop-color="#fc7f7f"/>
      <stop offset=".5" stop-color="#8da5f3"/>
    </linearGradient>
    <linearGradient id="linear-gradient1" x1="-1.34" y1="15.81" x2="33.06" y2="15.81" xlink:href="#linear-gradient"/>
  </defs>
  <g id="Layer_2">
    <g>
      <path class="st3" d="M22.77,25.02c.73-.93.41-1.55.17-1.87-.98.95-2.15,1.72-3.46,2.21,1.04-1.92,1.76-3.85,2.16-5.78.03,0,.05,0,.08-.01.11-1.2.66-2.29,1.57-3.08l.04-.03.04-.03c.15-.12.32-.23.48-.33-.21.05-.41.11-.63.15l-4.31,4.31h-.64c-.5,1.6-1.25,3.2-2.27,4.81-.19-.29-.35-.58-.52-.87v1.77c0,.63.57,1.14,1.28,1.14h2.15l1.77,1.77c.38-.14.75-.28,1.12-.45-.21-1.28.09-2.64.97-3.71Z"/>
      <path class="st2" d="M11.48,26.27v-1.36c-2.46-1.25-4.34-3.49-5.1-6.19,1.18.36,2.52.65,3.97.86.25,1.2.63,2.4,1.13,3.6v-1.47c0-2.15,1.36-3.99,3.29-4.76-.59-.02-1.18-.04-1.75-.09-.2-3.4.79-6.8,2.98-10.23,1.76,2.76,2.73,5.5,2.94,8.24l1.45-1.45c.37-.37.8-.66,1.26-.9-.4-1.96-1.12-3.93-2.18-5.89,2.61.97,4.69,3.01,5.75,5.58.71.22,1.35.61,1.88,1.12.48-.17.99-.25,1.51-.25.38,0,.75.06,1.11.15-1.29-6.39-6.95-11.23-13.72-11.23-7.72,0-14,6.28-14,14,0,6.61,4.61,12.16,10.79,13.61-.8-.9-1.3-2.06-1.3-3.34ZM6.03,15.41c.24-4.04,2.87-7.43,6.5-8.78-1.78,3.28-2.63,6.57-2.53,9.86-1.6-.27-2.96-.65-3.96-1.08Z"/>
    </g>
    <rect id="_x3C_Slice_x3E_" class="st0" x="15" y="16" width="17" height="17"/>
    <rect id="_x3C_Slice_x3E_1" data-name="_x3C_Slice_x3E_" class="st0" x="2" y="2" width="31" height="30"/>
  </g>
  <g id="Layer_1">
    <path class="st1" d="M29.11,17.31c-.23-.26-.62-.31-.89-.09-.26.23-.31.62-.09.89,4.75,5.79.21,11.52,0,11.76-.22.27-.17.66.09.89.11.09.26.14.4.14.18,0,.37-.08.49-.23.05-.07,5.4-6.76,0-13.36Z"/>
    <path class="st1" d="M26.81,19.58c-.23-.26-.63-.29-.89-.07-.26.23-.3.63-.07.89,3.03,3.53.13,7.02,0,7.17-.22.26-.19.66.07.89.13.1.26.15.41.15.18,0,.35-.08.48-.22.03-.05,3.73-4.45,0-8.81Z"/>
    <path class="st1" d="M23.88,15.99c-.24-.02-.47.06-.63.23l-4.34,4.34h-2.15c-.71,0-1.28.51-1.28,1.14v4.57c0,.63.57,1.14,1.28,1.14h2.15l4.34,4.34c.5.51,1.37.15,1.37-.56v-14.39c0-.42-.32-.78-.74-.81Z"/>
  </g>
</svg>